<?xml version="1.0" encoding="utf-8"?>
<!-- Generator: Adobe Illustrator 18.1.1, SVG Export Plug-In . SVG Version: 6.00 Build 0)  -->
<svg version="1.1" id="Layer_1" xmlns="http://www.w3.org/2000/svg" xmlns:xlink="http://www.w3.org/1999/xlink" x="0px" y="0px"
	 viewBox="0 0 500 500" enable-background="new 0 0 500 500" xml:space="preserve">
<g>
	<g>
		<path fill="#254152" d="M177.2,252.1c-2.2,0-4.1-0.4-5.8-1.1c-1.7-0.7-3.2-1.7-4.4-3c-1.2-1.3-2.1-2.7-2.8-4.4
			c-0.6-1.7-1-3.4-1-5.2c0-1.9,0.3-3.6,1-5.3c0.6-1.7,1.6-3.1,2.8-4.4c1.2-1.3,2.7-2.3,4.4-3c1.7-0.7,3.7-1.1,5.8-1.1
			c2.2,0,4.1,0.4,5.8,1.1c1.7,0.7,3.2,1.7,4.4,3c1.2,1.3,2.1,2.7,2.8,4.4c0.6,1.7,1,3.4,1,5.3c0,1.8-0.3,3.6-1,5.2
			c-0.6,1.7-1.6,3.1-2.7,4.4c-1.2,1.3-2.6,2.3-4.4,3C181.3,251.7,179.4,252.1,177.2,252.1z M170.3,238.3c0,1.2,0.2,2.3,0.5,3.2
			c0.4,1,0.8,1.8,1.5,2.5c0.6,0.7,1.4,1.3,2.2,1.6c0.8,0.4,1.8,0.6,2.7,0.6c1,0,1.9-0.2,2.7-0.6c0.8-0.4,1.6-0.9,2.2-1.6
			c0.6-0.7,1.1-1.6,1.5-2.5c0.4-1,0.5-2.1,0.5-3.2c0-1.1-0.2-2.2-0.5-3.2c-0.4-1-0.8-1.8-1.5-2.5c-0.6-0.7-1.4-1.3-2.2-1.6
			c-0.8-0.4-1.8-0.6-2.7-0.6c-1,0-1.9,0.2-2.7,0.6c-0.8,0.4-1.6,1-2.2,1.7c-0.6,0.7-1.1,1.6-1.5,2.5
			C170.4,236.1,170.3,237.2,170.3,238.3z"/>
		<path fill="#254152" d="M263.7,251.6h-6.8v-14.9c0-2.1-0.4-3.7-1.1-4.7c-0.7-1-1.8-1.5-3.1-1.5c-0.7,0-1.4,0.1-2.1,0.4
			c-0.7,0.3-1.4,0.6-2,1.1c-0.6,0.5-1.2,1.1-1.7,1.7c-0.5,0.7-0.9,1.4-1.1,2.2v15.5H239V225h6.1v4.9c1-1.7,2.4-3,4.3-4
			c1.9-0.9,4-1.4,6.3-1.4c1.7,0,3,0.3,4.1,0.9c1,0.6,1.9,1.4,2.4,2.4c0.6,1,1,2.1,1.2,3.3c0.2,1.2,0.3,2.5,0.3,3.8V251.6z"/>
		<path fill="#254152" d="M276.8,252.1c-1.3,0-2.5-0.2-3.6-0.6s-2.1-1-2.9-1.8c-0.8-0.8-1.4-1.6-1.9-2.7c-0.5-1-0.7-2.1-0.7-3.3
			c0-1.2,0.3-2.4,0.8-3.5c0.6-1.1,1.3-2,2.3-2.7c1-0.7,2.2-1.3,3.6-1.7c1.4-0.4,2.9-0.6,4.6-0.6c1.2,0,2.3,0.1,3.5,0.3
			c1.1,0.2,2.1,0.5,3,0.9v-1.5c0-1.8-0.5-3.1-1.5-4.1c-1-0.9-2.5-1.4-4.4-1.4c-1.4,0-2.8,0.3-4.2,0.8c-1.4,0.5-2.7,1.2-4.2,2.2
			l-2.1-4.3c3.4-2.3,7.1-3.4,11-3.4c3.8,0,6.8,0.9,8.9,2.8c2.1,1.9,3.2,4.6,3.2,8.1v8.3c0,0.7,0.1,1.2,0.4,1.5
			c0.3,0.3,0.7,0.5,1.2,0.5v5.8c-1.1,0.2-2.1,0.4-3,0.4c-1.3,0-2.3-0.3-3-0.9c-0.7-0.6-1.1-1.3-1.3-2.3l-0.2-1.5
			c-1.2,1.6-2.6,2.7-4.3,3.5C280.6,251.7,278.7,252.1,276.8,252.1z M278.7,247.1c1.1,0,2.2-0.2,3.3-0.6c1-0.4,1.8-0.9,2.4-1.6
			c0.7-0.6,1.1-1.2,1.1-1.9v-3c-0.8-0.3-1.7-0.5-2.6-0.7c-0.9-0.2-1.9-0.3-2.7-0.3c-1.8,0-3.2,0.4-4.3,1.2c-1.1,0.8-1.7,1.8-1.7,3
			c0,1.1,0.4,2.1,1.3,2.9C276.4,246.7,277.5,247.1,278.7,247.1z"/>
		<path fill="#254152" d="M297,238.3c0-1.9,0.3-3.6,1-5.3c0.6-1.7,1.6-3.1,2.8-4.4c1.2-1.2,2.7-2.2,4.4-3c1.7-0.7,3.7-1.1,5.8-1.1
			c2.9,0,5.4,0.6,7.4,1.9c2,1.2,3.6,2.9,4.6,4.9l-6.6,2c-0.6-1-1.3-1.7-2.3-2.3c-0.9-0.5-2-0.8-3.1-0.8c-1,0-1.9,0.2-2.7,0.6
			c-0.8,0.4-1.6,0.9-2.2,1.6c-0.6,0.7-1.1,1.5-1.5,2.5c-0.4,1-0.5,2.1-0.5,3.2s0.2,2.3,0.6,3.2c0.4,1,0.9,1.8,1.5,2.5
			c0.6,0.7,1.4,1.3,2.2,1.6c0.8,0.4,1.7,0.6,2.7,0.6c1.2,0,2.3-0.3,3.4-0.9c1-0.6,1.7-1.3,2.2-2.2l6.6,2c-0.9,2-2.4,3.7-4.5,5
			c-2.1,1.3-4.6,1.9-7.5,1.9c-2.2,0-4.1-0.4-5.8-1.1c-1.7-0.7-3.2-1.7-4.4-3c-1.2-1.3-2.2-2.7-2.8-4.4
			C297.3,241.9,297,240.1,297,238.3z"/>
		<path fill="#254152" d="M334.4,252.1c-1.3,0-2.5-0.2-3.6-0.6s-2.1-1-2.9-1.8c-0.8-0.8-1.4-1.6-1.9-2.7c-0.5-1-0.7-2.1-0.7-3.3
			c0-1.2,0.3-2.4,0.8-3.5c0.6-1.1,1.3-2,2.3-2.7c1-0.7,2.2-1.3,3.6-1.7c1.4-0.4,2.9-0.6,4.6-0.6c1.2,0,2.3,0.1,3.5,0.3
			c1.1,0.2,2.1,0.5,3,0.9v-1.5c0-1.8-0.5-3.1-1.5-4.1c-1-0.9-2.5-1.4-4.4-1.4c-1.4,0-2.8,0.3-4.2,0.8c-1.4,0.5-2.7,1.2-4.2,2.2
			l-2.1-4.3c3.4-2.3,7.1-3.4,11-3.4c3.8,0,6.8,0.9,8.9,2.8c2.1,1.9,3.2,4.6,3.2,8.1v8.3c0,0.7,0.1,1.2,0.4,1.5
			c0.3,0.3,0.7,0.5,1.2,0.5v5.8c-1.1,0.2-2.1,0.4-3,0.4c-1.3,0-2.3-0.3-3-0.9c-0.7-0.6-1.1-1.3-1.3-2.3l-0.2-1.5
			c-1.2,1.6-2.6,2.7-4.3,3.5C338.2,251.7,336.4,252.1,334.4,252.1z M336.4,247.1c1.1,0,2.2-0.2,3.3-0.6c1-0.4,1.8-0.9,2.4-1.6
			c0.7-0.6,1.1-1.2,1.1-1.9v-3c-0.8-0.3-1.7-0.5-2.6-0.7c-0.9-0.2-1.9-0.3-2.7-0.3c-1.8,0-3.2,0.4-4.3,1.2c-1.1,0.8-1.7,1.8-1.7,3
			c0,1.1,0.4,2.1,1.3,2.9C334,246.7,335.1,247.1,336.4,247.1z"/>
		<path fill="#254152" d="M372.1,230.9c-2.1,0-3.9,0.4-5.5,1.2c-1.6,0.8-2.8,1.9-3.5,3.4v16.1h-6.8V225h6.2v5.7
			c0.5-0.9,1-1.7,1.7-2.5c0.6-0.7,1.3-1.4,2.1-1.9c0.7-0.5,1.5-1,2.3-1.2c0.8-0.3,1.5-0.4,2.2-0.4c0.4,0,0.6,0,0.8,0
			c0.2,0,0.4,0,0.5,0.1V230.9z"/>
		<path fill="#254152" d="M373.4,251.6v-7.3h5.6v7.3H373.4z"/>
		<path fill="#254152" d="M384.9,221.3v-6.7h6.8v6.7H384.9z M384.9,251.6V225h6.8v26.5H384.9z"/>
		<path fill="#254152" d="M422.5,251.6h-6.8v-14.9c0-2.1-0.4-3.7-1.1-4.7c-0.7-1-1.8-1.5-3.1-1.5c-0.7,0-1.4,0.1-2.1,0.4
			c-0.7,0.3-1.4,0.6-2,1.1c-0.6,0.5-1.2,1.1-1.7,1.7c-0.5,0.7-0.9,1.4-1.1,2.2v15.5h-6.8V225h6.1v4.9c1-1.7,2.4-3,4.3-4
			c1.9-0.9,4-1.4,6.3-1.4c1.7,0,3,0.3,4.1,0.9c1,0.6,1.9,1.4,2.4,2.4c0.6,1,1,2.1,1.2,3.3c0.2,1.2,0.3,2.5,0.3,3.8V251.6z"/>
		<g>
			<path fill="#254152" d="M169.3,273.4c-0.2-0.2-0.4-0.4-0.8-0.6c-0.3-0.2-0.8-0.3-1.6-0.6l-0.6-0.2c-0.8-0.3-1.4-0.5-1.9-0.8
				c-0.5-0.2-0.8-0.6-1.1-1c-0.3-0.4-0.4-0.9-0.4-1.6c0-1,0.4-1.8,1.1-2.3s1.9-0.8,3.4-0.8c1.2,0,2.3,0.2,3.2,0.5v1.7
				c-1-0.3-2-0.5-2.9-0.5c-1,0-1.8,0.1-2.2,0.3c-0.4,0.2-0.6,0.6-0.6,1.1c0,0.4,0.1,0.7,0.3,0.9c0.2,0.2,0.4,0.4,0.8,0.5
				c0.3,0.1,0.9,0.3,1.8,0.6c0.9,0.3,1.7,0.6,2.2,0.9c0.5,0.3,0.9,0.6,1.2,1.1c0.2,0.4,0.4,1,0.4,1.6c0,2.2-1.5,3.2-4.5,3.2
				c-0.7,0-1.4,0-2.1-0.1c-0.7-0.1-1.2-0.2-1.7-0.4v-1.7c1.1,0.4,2.3,0.6,3.5,0.6c1,0,1.8-0.1,2.2-0.3c0.4-0.2,0.6-0.6,0.6-1.2
				C169.6,273.9,169.5,273.6,169.3,273.4z"/>
			<path fill="#254152" d="M190.7,277.2v-7.4c0-1-0.2-1.7-0.6-2.1c-0.4-0.4-1.1-0.6-2.1-0.6c-0.6,0-1.2,0.1-1.8,0.3
				c-0.6,0.2-1,0.5-1.4,0.9c0.1,0.4,0.1,0.9,0.1,1.4v7.4H183v-7.3c0-1-0.2-1.7-0.5-2.1c-0.3-0.4-1-0.6-1.9-0.6
				c-0.6,0-1.2,0.1-1.8,0.4c-0.6,0.3-1.1,0.6-1.6,1.1v8.6h-1.9v-11.4h1.8l0.1,1.3c1.3-1,2.7-1.5,4.1-1.5c0.8,0,1.5,0.1,1.9,0.4
				c0.5,0.3,0.8,0.7,1.1,1.2c0.6-0.5,1.2-0.9,1.9-1.2c0.7-0.3,1.5-0.4,2.5-0.4c1.3,0,2.3,0.3,2.9,1c0.6,0.7,0.9,1.7,0.9,3.1v7.6
				H190.7z"/>
			<path fill="#254152" d="M204.3,276c-0.5,0.5-1.1,0.9-1.8,1.2c-0.7,0.2-1.6,0.4-2.6,0.4c-1.2,0-2.1-0.3-2.9-0.9s-1.1-1.4-1.1-2.5
				c0-1.1,0.4-2,1.1-2.6c0.7-0.6,1.8-0.9,3.3-0.9h4v-0.7c0-0.6-0.1-1.1-0.3-1.5c-0.2-0.4-0.5-0.6-1-0.8c-0.5-0.2-1.1-0.2-2-0.2
				c-1.3,0-2.6,0.2-3.8,0.6v-1.6c1.1-0.4,2.5-0.6,4.1-0.6c1.6,0,2.9,0.3,3.7,1c0.8,0.7,1.2,1.7,1.2,3.2v7.5h-1.7L204.3,276z
				 M200.3,272c-0.9,0-1.5,0.2-1.9,0.5c-0.4,0.3-0.6,0.8-0.6,1.6c0,0.7,0.2,1.1,0.6,1.4c0.4,0.3,1.1,0.4,1.9,0.4
				c1.6,0,2.9-0.6,3.8-1.7V272H200.3z"/>
			<path fill="#254152" d="M212.1,267.3c0.6-0.4,1.2-0.7,2-1c0.8-0.3,1.5-0.5,2.2-0.7v1.5c-0.7,0.1-1.5,0.4-2.3,0.7
				c-0.8,0.3-1.4,0.6-1.9,0.9v8.5h-2v-11.4h1.8L212.1,267.3z"/>
			<path fill="#254152" d="M220.4,265.9V263l2-0.6v3.4h3.2l-0.1,1.6h-3v6.6c0,0.7,0.2,1.2,0.5,1.5c0.3,0.3,0.9,0.4,1.6,0.4
				c0.4,0,0.9-0.1,1.4-0.2v1.5c-0.6,0.2-1.3,0.3-2,0.3c-1.1,0-1.9-0.3-2.5-0.9s-0.9-1.4-0.9-2.5v-6.7h-1.7v-1.6H220.4z"/>
			<path fill="#254152" d="M244.4,277.5c-2,0-3.4-0.5-4.4-1.5c-1-1-1.5-2.5-1.5-4.4c0-2,0.5-3.4,1.6-4.4c1.1-1,2.5-1.5,4.4-1.5
				c0.7,0,1.3,0.1,1.8,0.2c0.5,0.1,1,0.3,1.5,0.5v1.6c-0.9-0.4-1.9-0.6-3-0.6c-1.5,0-2.6,0.3-3.3,1c-0.7,0.7-1.1,1.8-1.1,3.3
				c0,1.5,0.3,2.6,1,3.3c0.7,0.7,1.8,1,3.3,1c1.1,0,2.1-0.2,3.1-0.6v1.6C246.9,277.3,245.7,277.5,244.4,277.5z"/>
			<path fill="#254152" d="M260.1,277.2v-7.4c0-1-0.2-1.7-0.6-2.1c-0.4-0.4-1.2-0.6-2.2-0.6c-0.6,0-1.3,0.1-2,0.4
				c-0.7,0.3-1.2,0.6-1.7,1.1v8.5h-2V261h2v6c1.2-1,2.7-1.5,4.4-1.5c1.4,0,2.4,0.3,3.1,1c0.7,0.7,1,1.7,1,3.2v7.5H260.1z"/>
			<path fill="#254152" d="M277.1,271.6c0,2-0.5,3.5-1.4,4.4c-0.9,1-2.4,1.5-4.3,1.5s-3.4-0.5-4.3-1.5c-0.9-1-1.4-2.5-1.4-4.4
				c0-4,1.9-5.9,5.7-5.9S277.1,267.6,277.1,271.6z M274.3,274.8c0.6-0.7,0.9-1.8,0.9-3.2c0-1.5-0.3-2.6-0.9-3.2
				c-0.6-0.7-1.5-1-2.9-1s-2.3,0.3-2.9,1c-0.6,0.7-0.9,1.8-0.9,3.2c0,1.5,0.3,2.6,0.9,3.2c0.6,0.7,1.5,1,2.9,1
				S273.7,275.5,274.3,274.8z"/>
			<path fill="#254152" d="M283.5,277.2h-2v-9.8h-1.8l0.2-1.6h3.5V277.2z M281.3,263.2v-1.8h2.2v1.8H281.3z"/>
			<path fill="#254152" d="M293.1,277.5c-2,0-3.4-0.5-4.4-1.5c-1-1-1.5-2.5-1.5-4.4c0-2,0.5-3.4,1.6-4.4c1.1-1,2.5-1.5,4.4-1.5
				c0.7,0,1.3,0.1,1.8,0.2c0.5,0.1,1,0.3,1.5,0.5v1.6c-0.9-0.4-1.9-0.6-3-0.6c-1.5,0-2.6,0.3-3.3,1c-0.7,0.7-1.1,1.8-1.1,3.3
				c0,1.5,0.3,2.6,1,3.3c0.7,0.7,1.8,1,3.3,1c1.1,0,2.1-0.2,3.1-0.6v1.6C295.6,277.3,294.4,277.5,293.1,277.5z"/>
			<path fill="#254152" d="M302.4,274.5c0.3,0.5,0.8,0.8,1.4,1.1c0.6,0.2,1.5,0.3,2.5,0.3c1.2,0,2.2-0.2,3.2-0.6v1.5
				c-1,0.4-2.2,0.6-3.6,0.6c-2,0-3.6-0.5-4.6-1.5c-1-1-1.5-2.5-1.5-4.5c0-1.9,0.4-3.3,1.3-4.4c0.9-1,2.3-1.5,4.1-1.5
				c1.6,0,2.8,0.4,3.7,1.3c0.8,0.9,1.3,2,1.3,3.4v2.1h-8.4C301.9,273.3,302.1,274,302.4,274.5z M302.6,268.1
				c-0.5,0.6-0.8,1.6-0.8,2.9h6.7v-0.9c0-0.9-0.3-1.7-0.8-2.2c-0.5-0.5-1.3-0.7-2.4-0.7C304.1,267.2,303.1,267.5,302.6,268.1z"/>
			<path fill="#254152" d="M319.9,273.4c-0.2-0.2-0.4-0.4-0.8-0.6c-0.3-0.2-0.8-0.3-1.6-0.6l-0.6-0.2c-0.8-0.3-1.4-0.5-1.9-0.8
				c-0.5-0.2-0.8-0.6-1.1-1c-0.3-0.4-0.4-0.9-0.4-1.6c0-1,0.4-1.8,1.1-2.3s1.9-0.8,3.4-0.8c1.2,0,2.3,0.2,3.2,0.5v1.7
				c-1-0.3-2-0.5-2.9-0.5c-1,0-1.8,0.1-2.2,0.3c-0.4,0.2-0.6,0.6-0.6,1.1c0,0.4,0.1,0.7,0.3,0.9c0.2,0.2,0.4,0.4,0.8,0.5
				c0.3,0.1,0.9,0.3,1.8,0.6c0.9,0.3,1.7,0.6,2.2,0.9s0.9,0.6,1.2,1.1c0.2,0.4,0.4,1,0.4,1.6c0,2.2-1.5,3.2-4.5,3.2
				c-0.7,0-1.4,0-2.1-0.1c-0.7-0.1-1.2-0.2-1.7-0.4v-1.7c1.1,0.4,2.3,0.6,3.5,0.6c1,0,1.8-0.1,2.2-0.3c0.4-0.2,0.6-0.6,0.6-1.2
				C320.1,273.9,320,273.6,319.9,273.4z"/>
			<path fill="#254152" d="M337.9,274.5c0.3,0.5,0.8,0.8,1.4,1.1c0.6,0.2,1.5,0.3,2.5,0.3c1.2,0,2.2-0.2,3.2-0.6v1.5
				c-1,0.4-2.2,0.6-3.6,0.6c-2,0-3.6-0.5-4.6-1.5c-1-1-1.5-2.5-1.5-4.5c0-1.9,0.4-3.3,1.3-4.4c0.9-1,2.3-1.5,4.1-1.5
				c1.6,0,2.8,0.4,3.7,1.3c0.8,0.9,1.3,2,1.3,3.4v2.1h-8.4C337.4,273.3,337.6,274,337.9,274.5z M338.1,268.1
				c-0.5,0.6-0.8,1.6-0.8,2.9h6.7v-0.9c0-0.9-0.3-1.7-0.8-2.2c-0.5-0.5-1.3-0.7-2.4-0.7C339.5,267.2,338.6,267.5,338.1,268.1z"/>
			<path fill="#254152" d="M358,277.2v-7.4c0-0.7-0.1-1.2-0.3-1.6c-0.2-0.4-0.5-0.6-0.9-0.8c-0.4-0.2-1-0.3-1.8-0.3
				c-0.7,0-1.4,0.1-2,0.4c-0.6,0.3-1.2,0.6-1.6,1.1v8.6h-2v-11.4h1.8l0.1,1.3c1.3-1,2.7-1.5,4.4-1.5c1.4,0,2.5,0.3,3.2,1
				c0.7,0.7,1,1.7,1,3.2v7.5H358z"/>
			<path fill="#254152" d="M371.6,276c-0.5,0.5-1.1,0.9-1.8,1.2c-0.7,0.2-1.6,0.4-2.6,0.4c-1.2,0-2.1-0.3-2.9-0.9
				c-0.8-0.6-1.1-1.4-1.1-2.5c0-1.1,0.4-2,1.1-2.6c0.7-0.6,1.8-0.9,3.3-0.9h4v-0.7c0-0.6-0.1-1.1-0.3-1.5c-0.2-0.4-0.5-0.6-1-0.8
				c-0.5-0.2-1.1-0.2-2-0.2c-1.3,0-2.6,0.2-3.8,0.6v-1.6c1.1-0.4,2.5-0.6,4.1-0.6c1.6,0,2.9,0.3,3.7,1c0.8,0.7,1.2,1.7,1.2,3.2v7.5
				h-1.7L371.6,276z M367.6,272c-0.9,0-1.5,0.2-1.9,0.5c-0.4,0.3-0.6,0.8-0.6,1.6c0,0.7,0.2,1.1,0.6,1.4c0.4,0.3,1.1,0.4,1.9,0.4
				c1.6,0,2.9-0.6,3.8-1.7V272H367.6z"/>
			<path fill="#254152" d="M387.1,276c-0.9,1-2.2,1.5-3.8,1.5c-0.8,0-1.6-0.1-2.2-0.3c-0.6-0.2-1.2-0.6-1.7-1.1l-0.1,1.2h-1.7V261h2
				v5.7c1-0.7,2.3-1.1,3.8-1.1c3.4,0,5.2,1.9,5.2,5.8C388.4,273.5,388,275,387.1,276z M379.5,268.3v6.2c0.8,0.9,2,1.4,3.3,1.4
				c1.3,0,2.3-0.4,2.8-1.1c0.6-0.7,0.9-1.8,0.9-3.4s-0.3-2.6-0.9-3.3c-0.6-0.7-1.5-1-2.8-1C381.4,267.2,380.3,267.6,379.5,268.3z"/>
			<path fill="#254152" d="M394.1,261v13.5c0,0.5,0.1,0.8,0.2,1c0.2,0.2,0.4,0.3,0.8,0.3c0.4,0,0.7,0,1.1-0.1v1.6
				c-0.4,0.2-0.9,0.2-1.6,0.2c-0.8,0-1.4-0.2-1.8-0.6c-0.4-0.4-0.6-1.1-0.6-2.1V261H394.1z"/>
			<path fill="#254152" d="M400.3,274.5c0.3,0.5,0.8,0.8,1.4,1.1c0.6,0.2,1.5,0.3,2.5,0.3c1.2,0,2.2-0.2,3.2-0.6v1.5
				c-1,0.4-2.2,0.6-3.6,0.6c-2,0-3.6-0.5-4.6-1.5c-1-1-1.5-2.5-1.5-4.5c0-1.9,0.4-3.3,1.3-4.4c0.9-1,2.3-1.5,4.1-1.5
				c1.6,0,2.8,0.4,3.7,1.3c0.8,0.9,1.3,2,1.3,3.4v2.1h-8.4C399.8,273.3,400,274,400.3,274.5z M400.5,268.1c-0.5,0.6-0.8,1.6-0.8,2.9
				h6.7v-0.9c0-0.9-0.3-1.7-0.8-2.2c-0.5-0.5-1.3-0.7-2.4-0.7C402,267.2,401.1,267.5,400.5,268.1z"/>
			<path fill="#254152" d="M412.8,267.2c0.9-1,2.2-1.6,3.9-1.6c0.7,0,1.4,0.1,2,0.3c0.6,0.2,1.2,0.4,1.7,0.8V261h2v16.2h-1.7
				l-0.1-1.2c-0.5,0.5-1.1,0.9-1.7,1.1c-0.6,0.2-1.4,0.3-2.2,0.3c-1.7,0-2.9-0.5-3.8-1.4c-0.9-0.9-1.3-2.4-1.3-4.4
				S411.9,268.2,412.8,267.2z M414.3,268.3c-0.6,0.7-0.9,1.9-0.9,3.4c0,1.5,0.3,2.6,0.8,3.2c0.6,0.6,1.5,1,2.8,1
				c1.4,0,2.5-0.5,3.3-1.4v-6.2c-0.9-0.8-1.9-1.1-3.3-1.1C415.9,267.2,414.9,267.6,414.3,268.3z"/>
		</g>
		<g>
			<polygon fill="#254152" points="221.3,249.5 214.9,233.6 212.3,240.2 216.9,251.6 221.2,249.8 221.1,249.6 			"/>
			<path fill="#254152" d="M216.9,251.6l10.7-26.5h6.8l-10.7,26.5H216.9z"/>
			<g>
				<polygon fill="#254152" points="203.2,249.5 196.8,233.6 194.2,240.2 198.7,251.6 203,249.8 202.9,249.6 				"/>
				<path fill="#254152" d="M198.7,251.6l10.7-26.5h6.8l-10.7,26.5H198.7z"/>
			</g>
		</g>
	</g>
	<g>
		<linearGradient id="SVGID_1_" gradientUnits="userSpaceOnUse" x1="121.7246" y1="261.933" x2="78.6534" y2="203.6914">
			<stop  offset="1.076729e-007" style="stop-color:#EE4137"/>
			<stop  offset="1" style="stop-color:#F79420"/>
		</linearGradient>
		<path fill="url(#SVGID_1_)" d="M133.1,214.6H92.7c-8.4,0-15.2,6.8-15.2,15.2v40.4c0,8.4,6.8,15.2,15.2,15.2h40.4
			c8.4,0,15.2-6.8,15.2-15.2v-40.4C148.3,221.4,141.5,214.6,133.1,214.6z"/>
		<g opacity="0.25">
			<polygon fill="#221F1F" points="128,237.9 120,257.9 115.4,246.5 112.8,253 117.4,264.4 124.1,264.4 134.8,237.9 			"/>
			<polygon fill="#221F1F" points="109.9,237.9 101.8,257.9 97.3,246.5 94.7,253 99.2,264.4 106,264.4 116.7,237.9 			"/>
		</g>
		<g>
			<polygon fill="#FFFFFF" points="126.2,236.7 118.1,256.7 113.6,245.3 111,251.9 115.5,263.3 122.3,263.3 133,236.7 			"/>
			<polygon fill="#FFFFFF" points="108,236.7 100,256.7 95.4,245.3 92.8,251.9 97.4,263.3 104.2,263.3 114.8,236.7 			"/>
		</g>
	</g>
</g>
</svg>
